<svg width="20" height="20" viewBox="0 0 20 20" fill="none" xmlns="http://www.w3.org/2000/svg">
<path d="M15.8333 7.49996C15.8333 6.6159 15.4821 5.76806 14.857 5.14294C14.2319 4.51782 13.384 4.16663 12.5 4.16663V2.49996C12.5 2.27895 12.4122 2.06698 12.2559 1.9107C12.0996 1.75442 11.8876 1.66663 11.6666 1.66663C11.4456 1.66663 11.2337 1.75442 11.0774 1.9107C10.9211 2.06698 10.8333 2.27895 10.8333 2.49996V4.16663H9.16663V2.49996C9.16663 2.27895 9.07883 2.06698 8.92255 1.9107C8.76627 1.75442 8.55431 1.66663 8.33329 1.66663C8.11228 1.66663 7.90032 1.75442 7.74404 1.9107C7.58776 2.06698 7.49996 2.27895 7.49996 2.49996V4.16663H4.99996C4.77895 4.16663 4.56698 4.25442 4.4107 4.4107C4.25442 4.56698 4.16663 4.77895 4.16663 4.99996C4.16663 5.22097 4.25442 5.43293 4.4107 5.58921C4.56698 5.74549 4.77895 5.83329 4.99996 5.83329H5.83329V14.1666H4.99996C4.77895 14.1666 4.56698 14.2544 4.4107 14.4107C4.25442 14.567 4.16663 14.7789 4.16663 15C4.16663 15.221 4.25442 15.4329 4.4107 15.5892C4.56698 15.7455 4.77895 15.8333 4.99996 15.8333H7.49996V17.5C7.49996 17.721 7.58776 17.9329 7.74404 18.0892C7.90032 18.2455 8.11228 18.3333 8.33329 18.3333C8.55431 18.3333 8.76627 18.2455 8.92255 18.0892C9.07883 17.9329 9.16663 17.721 9.16663 17.5V15.8333H10.8333V17.5C10.8333 17.721 10.9211 17.9329 11.0774 18.0892C11.2337 18.2455 11.4456 18.3333 11.6666 18.3333C11.8876 18.3333 12.0996 18.2455 12.2559 18.0892C12.4122 17.9329 12.5 17.721 12.5 17.5V15.8333C13.1752 15.829 13.8332 15.6197 14.3869 15.2331C14.9405 14.8465 15.3637 14.3009 15.6004 13.6685C15.8371 13.0361 15.8762 12.3467 15.7124 11.6916C15.5486 11.0365 15.1897 10.4466 14.6833 9.99996C15.0419 9.68913 15.33 9.30531 15.5283 8.87417C15.7266 8.44303 15.8306 7.97452 15.8333 7.49996ZM12.5 14.1666H7.49996V10.8333H12.5C12.942 10.8333 13.3659 11.0089 13.6785 11.3214C13.991 11.634 14.1666 12.0579 14.1666 12.5C14.1666 12.942 13.991 13.3659 13.6785 13.6785C13.3659 13.991 12.942 14.1666 12.5 14.1666ZM12.5 9.16663H7.49996V5.83329H12.5C12.942 5.83329 13.3659 6.00889 13.6785 6.32145C13.991 6.63401 14.1666 7.05793 14.1666 7.49996C14.1666 7.94199 13.991 8.36591 13.6785 8.67847C13.3659 8.99103 12.942 9.16663 12.5 9.16663Z" fill="white"/>
</svg>
